<?xml version="1.0" standalone="no"?><!DOCTYPE svg PUBLIC "-//W3C//DTD SVG 1.1//EN" "http://www.w3.org/Graphics/SVG/1.1/DTD/svg11.dtd"><svg t="1762304630735" class="icon" viewBox="0 0 1024 1024" version="1.1" xmlns="http://www.w3.org/2000/svg" p-id="9796" xmlns:xlink="http://www.w3.org/1999/xlink" width="200" height="200"><path d="M888.239912 391.112148a51.255988 51.151988 0 1 0 102.511976 0 51.255988 51.151988 0 1 0-102.511976 0Z" fill="#FDE5A2" p-id="9797"></path><path d="M409.872024 391.112148a51.255988 51.151988 0 1 0 102.511976 0 51.255988 51.151988 0 1 0-102.511976 0Z" fill="#FDE5A2" p-id="9798"></path><path d="M461.128012 305.856168a239.183944 238.711944 0 1 0 478.367888 0 239.183944 238.711944 0 1 0-478.367888 0Z" fill="#FDE5A2" p-id="9799"></path><path d="M529.471996 305.856168c0-120.263972 89.103979-219.735948 205.015952-236.279944-11.167997-1.6-22.567995-2.439999-34.175992-2.44-132.095969 0-239.175944 106.879975-239.175944 238.719944s107.087975 238.719944 239.183944 238.719944c11.599997 0 22.999995-0.848 34.159992-2.439999-115.903973-16.551996-205.007952-116.023973-205.007952-236.279945z" fill="#FDDD85" p-id="9800"></path><path d="M990.751888 1004.960004h-580.879864V698.024076c0-56.503987 45.895989-102.303976 102.511976-102.303976h375.855912c56.615987 0 102.511976 45.799989 102.511976 102.303976v306.919928z" fill="#FDD042" p-id="9801"></path><path d="M563.639988 595.7281h-51.255988c-56.615987 0-102.503976 45.799989-102.503976 102.303976v306.919928h51.255988V698.032076c0-56.503987 45.887989-102.303976 102.503976-102.303976z" fill="#F2C127" p-id="9802"></path><path d="M649.055968 544.576112h102.503976v51.151988H649.055968z" fill="#FDE5A2" p-id="9803"></path><path d="M751.567944 663.928084l-51.255988 34.103992-51.247988-34.103992v-68.199984h102.503976z" fill="#FDE5A2" p-id="9804"></path><path d="M836.991924 732.136068L751.567944 663.920084v-68.199984h85.42398zM563.639988 732.136068l85.42398-68.207984v-68.199984H563.639988z" fill="#FFFFFF" p-id="9805"></path><path d="M871.159916 84.19222a68.335984 68.207984 0 1 0 136.671968 0 68.335984 68.207984 0 1 0-136.671968 0Z" fill="#CF442B" p-id="9806"></path><path d="M700.319956 15.984236c-150.975965 0-273.359936 122.143971-273.359936 272.815936v51.159988l68.343984 136.399968v-136.399968h410.023904v136.399968l68.335984-136.399968V288.800172c0-150.663965-122.375971-272.815936-273.351936-272.815936z" fill="#E5563C" p-id="9807"></path><path d="M495.304004 288.800172c0-139.119967 104.343976-253.91994 239.175944-270.695936a276.527935 276.527935 0 0 0-34.159992-2.12c-150.975965 0-273.359936 122.151971-273.359936 272.823936v51.151988l68.343984 136.407968V288.800172z" fill="#CF442B" p-id="9808"></path><path d="M392.800028 186.496196c0-94.167978-84.14398-170.51196-187.935956-170.51196S16.936116 92.328218 16.936116 186.496196c0 94.175978 84.13598 170.51196 187.927956 170.51196 1.608 0 3.215999-0.016 4.815999-0.056l97.695977 85.31198V329.424163c51.423988-30.423993 85.41598-83.071981 85.41598-142.927967z" fill="#EBEBEC" p-id="9809"></path><path d="M68.192104 195.024194C68.192104 104.320216 138.984087 29.392233 230.800066 17.600236a208.559951 208.559951 0 0 0-25.935994-1.624c-103.791976 0-187.927956 76.343982-187.927956 170.51196 0 83.23998 65.743985 152.535964 152.687964 167.503961-60.263986-29.815993-101.439976-89.807979-101.439976-158.975963z" fill="#D7D8D9" p-id="9810"></path><path d="M529.471996 953.800016H68.192104l-51.255988-238.719944h461.279892z" fill="#74757B" p-id="9811"></path><path d="M68.192104 953.800016H700.319956v51.151988H68.192104z" fill="#C3C4C6" p-id="9812"></path><path d="M16.936116 715.080072l51.255988 238.719944h51.247988l-51.247988-238.719944z" fill="#606268" p-id="9813"></path><path d="M68.192104 953.800016h51.255988v51.151988H68.192104z" fill="#AFB0B4" p-id="9814"></path><path d="M239.032064 834.440044a34.167992 34.103992 0 1 0 68.335984 0 34.167992 34.103992 0 1 0-68.335984 0Z" fill="#FDDD85" p-id="9815"></path><path d="M888.823912 476.928128c0.24 6.879998 5.311999 13.015997 11.975997 14.847997 7.287998 2.008 15.343996-1.512 18.719995-8.263998l12.911997-25.631994c2.319999 0.24 4.695999 0.368 7.031999 0.368 37.087991 0 67.287984-30.119993 67.287984-67.135985 0-17.015996-7.039998-33.359992-18.559996-45.719989 0.624-1.736 0.424-3.575999 0.424-5.439999V288.800172c0-44.14399-9.455998-85.99998-27.279993-123.447971 35.687992-9.815998 62.247985-42.47999 62.247985-81.159981C1023.58388 37.760231 985.887889 0.00024 939.3679 0.00024a84.25598 84.25598 0 0 0-76.943982 49.743988A289.711932 289.711932 0 0 0 699.759956 0.00024C540.191993 0.00024 409.880024 129.56021 409.880024 288.800172v51.159988c0 1.856 0.856 3.687999 1.488 5.431999-11.519997 12.359997-17.767996 28.703993-17.767996 45.719989 0 37.015991 30.303993 67.135984 67.399984 67.135985 2.335999 0 4.743999-0.128 7.063998-0.368l12.879997 25.631994a16.047996 16.047996 0 0 0 18.023996 8.407998c7.023998-1.656 11.471997-7.791998 11.759997-14.935997 32.799992 36.175992 76.399982 61.919985 121.247972 74.607983v29.215993H512.384c-65.359985 0-119.591972 51.999988-119.591972 117.223972v2.136H153.616084a15.999996 15.999996 0 0 0-16.015996 15.983996 15.999996 15.999996 0 0 0 16.015996 15.983996h311.655927l44.39199 206.743952H81.136101L36.752111 732.136068h50.663989a15.999996 15.999996 0 0 0 16.015996-15.983996 15.999996 15.999996 0 0 0-16.015996-15.983996h-70.479984c-10.031998 0-18.295996 8.999998-16.191996 18.799995l50.359988 236.527945v49.455988c0 8.831998 8.239998 17.055996 17.087996 17.055996h922.559784c8.847998 0 14.951996-8.223998 14.951996-17.055996v-204.615952a15.999996 15.999996 0 0 0-16.015996-15.983996 15.999996 15.999996 0 0 0-16.015996 15.983996v189.695956h-258.39994v-36.239992c0-8.823998-6.111999-14.911997-14.959996-14.911996H542.423993L493.880004 712.800073a16.015996 16.015996 0 0 0-15.663996-12.639997h-53.383988v-2.128c0-47.599989 39.863991-85.25598 87.55998-85.25598h34.159992v119.359972c0 13.103997 16.247996 20.719995 26.559994 12.479997l76.543982-60.903985 41.64799 27.623993a16.295996 16.295996 0 0 0 17.831996 0l41.54399-27.623993 75.759982 60.903985c10.303998 8.231998 25.495994 0.624 25.495994-12.479997v-119.359972h36.303992c47.695989 0 85.42398 37.655991 85.42398 85.25598v34.103992a15.999996 15.999996 0 0 0 16.015996 15.983997 15.999996 15.999996 0 0 0 16.015996-15.983997v-34.103992c0-65.223985-52.103988-117.223973-117.455972-117.223972H766.51194v-29.263993a255.19994 255.19994 0 0 0 122.319972-74.615983z m-205.599952 513.10388h-600.079859v-19.183996h600.079859v19.183996z m265.775938-565.087868l23.303994-46.519989c1.56 4.015999 2.431999 8.295998 2.432 12.687997a35.215992 35.215992 0 0 1-25.735994 33.831992z m-9.503998-392.975907c28.847993 0 52.319988 23.423995 52.319988 52.223987 0 26.671994-20.143995 48.727989-46.05599 51.831988a291.151932 291.151932 0 0 0-56.639986-65.895984 52.239988 52.239988 0 0 1 50.375988-38.159991zM441.912016 288.800172c0-141.615967 115.439973-256.83194 257.33594-256.831939 141.887967 0 257.32794 115.215973 257.32794 256.831939v47.383989l-36.303992 72.463983v-68.687984c0-8.831998-6.095999-14.919997-14.943996-14.919996h-104.639976v-53.279988a15.999996 15.999996 0 0 0-16.015996-15.991996 15.999996 15.999996 0 0 0-16.015996 15.983996v53.279988h-53.391988V220.608188a15.999996 15.999996 0 0 0-16.015996-15.983996 15.999996 15.999996 0 0 0-16.015996 15.983996V325.040164h-53.383988v-53.279988a15.999996 15.999996 0 0 0-16.015996-15.991996 15.999996 15.999996 0 0 0-16.015996 15.983996v53.279988H495.296004c-8.839998 0-17.079996 6.095999-17.079996 14.927996v68.687984l-36.303992-72.463983V288.800172zM425.89602 391.120148c0-4.391999 0.872-8.679998 2.432-12.695997l23.303994 46.527989a35.199992 35.199992 0 0 1-25.735994-33.839992z m86.44798 35.679992c-0.472-0.72 0.04-1.384-2.096-2v-67.783984h377.999912v69.343984c0 1.072-2.311999 2.407999-3.399999 4.023999a223.231948 223.231948 0 0 1-185.063957 98.207977 222.679948 222.679948 0 0 1-187.439956-101.791976z m66.239984 185.983956h53.391988v43.47199l-53.391988 42.62399V612.776096z m241.319944 86.09598l-53.383988-42.62399v-43.47199h53.383988v86.09598zM734.487948 561.624108V655.376086l-35.239992 23.439995-35.239992-23.439995V561.624108h70.479984z" fill="#000000" p-id="9816"></path><path d="M716.007952 746.048065c-2.639999-13.751997-21.287995-17.223996-29.015993-5.727999a16.143996 16.143996 0 0 0 1.448 19.599996c4.639999 5.167999 12.439997 6.671998 18.719995 3.719999a16.111996 16.111996 0 0 0 8.847998-17.591996zM711.631953 806.096051c-9.695998-9.991998-27.023994-2.639999-27.327993 10.959998a16.103996 16.103996 0 0 0 10.991997 15.503996 16.191996 16.191996 0 0 0 18.159996-6.039999 16.079996 16.079996 0 0 0-1.824-20.423995zM715.119952 879.480034a16.183996 16.183996 0 0 0-15.983996-9.823998 16.119996 16.119996 0 0 0-14.239997 11.679997 16.119996 16.119996 0 0 0 6.535999 17.559996c5.479999 3.639999 12.831997 3.519999 18.183996-0.296a16.159996 16.159996 0 0 0 5.495998-19.119995zM761.175942 455.056133a15.967996 15.967996 0 0 0 3.207999-22.383994 16.039996 16.039996 0 0 0-22.423995-3.2 70.071984 70.071984 0 0 1-41.64799 13.855997 70.071984 70.071984 0 0 1-41.63999-13.855997 16.039996 16.039996 0 0 0-22.423995 3.2 15.967996 15.967996 0 0 0 3.199999 22.383994c23.535994 17.615996 48.239989 20.239995 60.863986 20.239996 29.415993 0 50.759988-12.679997 60.863986-20.239996zM612.607976 367.944154c-5.463999-12.959997-24.663994-12.863997-29.735993 0.368-5.255999 13.679997 9.991998 26.895994 22.823995 19.655995 6.991998-3.951999 9.871998-12.623997 6.911998-20.023995zM802.823932 390.048149c14.719997 0 21.551995-19.095996 10.079997-28.391994-11.399997-9.247998-28.823993 1.232-25.751993 15.679997a16.183996 16.183996 0 0 0 15.671996 12.711997zM203.720072 372.992153l92.567979 81.303981c10.167998 8.871998 26.031994 1.392 26.031993-12.031998V338.288161c55.519987-35.031992 85.95998-91.143979 85.95998-151.791965C408.280024 83.66422 317.056046 0.00024 204.600072 0.00024S0.78412 83.66422 0.78412 186.496196c0 102.487976 90.999979 185.935956 202.935952 186.495957z m1.144-341.02392c94.799978 0 171.91996 69.319984 171.91996 154.527963 0 52.143988-29.535993 100.431976-78.111982 129.17597-4.863999 2.879999-8.383998 8.103998-8.383998 13.751997v77.607982l-70.591983-62.111986c-4.535999-3.959999-9.439998-3.895999-15.095997-3.895999-94.799978 0-171.78396-69.319984-171.78396-154.527964S110.080094 31.968233 204.864072 31.968233z" fill="#000000" p-id="9817"></path><path d="M203.800072 287.736173a15.999996 15.999996 0 0 0 16.015996-15.983997V169.4482a15.999996 15.999996 0 0 0-16.015996-15.983996 15.999996 15.999996 0 0 0-16.015996 15.983996v102.303976a15.999996 15.999996 0 0 0 16.015996 15.983997zM203.800072 136.408208a15.999996 15.999996 0 0 0 16.015996-15.983996v-2.128a15.999996 15.999996 0 0 0-16.015996-15.983996 15.999996 15.999996 0 0 0-16.015996 15.983996v2.128a15.999996 15.999996 0 0 0 16.015996 15.983996zM323.384044 834.440044c0-27.615994-22.511995-50.087988-50.183988-50.087988-27.671994 0-50.183988 22.471995-50.183988 50.087988s22.511995 50.087988 50.183988 50.087989c27.679994 0 50.183988-22.463995 50.183988-50.087989z m-68.335984 0a18.159996 18.159996 0 0 1 36.303992 0 18.159996 18.159996 0 0 1-36.303992 0zM409.880024 851.49604a15.999996 15.999996 0 0 0 16.015996-15.983996 15.999996 15.999996 0 0 0-16.015996-15.991996h-34.167992a15.999996 15.999996 0 0 0-16.015996 15.991996 15.999996 15.999996 0 0 0 16.015996 15.983996h34.159992zM136.528088 851.49604h34.167992a15.999996 15.999996 0 0 0 16.015996-15.983996 15.999996 15.999996 0 0 0-16.015996-15.991996h-34.167992a15.999996 15.999996 0 0 0-16.015996 15.991996 15.999996 15.999996 0 0 0 16.015996 15.983996z" fill="#000000" p-id="9818"></path></svg>